# xmcd
#
# Track frame offsets:
#	150
#	21825
#	48885
#	70861
#	94365
#	107767
#	132060
#	152829
#	171516
#	188066
#	199468
#
# Disc length: 2974 seconds
# Revision: 0
# Processed by: cddbd v1.5.2PL0 Copyright (c) Steve Scherf et al.
# Submitted via: dBpowerAMP V12.0
#
DISCID=990b9c0b
DTITLE=Steep Ravine - Trampin' On
DYEAR=2014
DGENRE=Americana
TTITLE0=Prairie Rose
TTITLE1=Wooden Floors
TTITLE2=No. 37
TTITLE3=The White Mare
TTITLE4=Lazy Tide
TTITLE5=The Waiting Blues
TTITLE6=Trampin' On
TTITLE7=Where the River Runs Deep and Green
TTITLE8=Wildflower Honey
TTITLE9=Ponderosa
TTITLE10=C'mon Home
EXTD=
EXTT0=
EXTT1=
EXTT2=
EXTT3=
EXTT4=
EXTT5=
EXTT6=
EXTT7=
EXTT8=
EXTT9=
EXTT10=
PLAYORDER=
